<?xml version="1.0" standalone="no"?>
<!DOCTYPE svg PUBLIC "-//W3C//DTD SVG 20010904//EN"
 "http://www.w3.org/TR/2001/REC-SVG-20010904/DTD/svg10.dtd">
<svg version="1.0" xmlns="http://www.w3.org/2000/svg"
 width="700.000000pt" height="700.000000pt" viewBox="0 0 700.000000 700.000000"
 preserveAspectRatio="xMidYMid meet">
<metadata>
Created by potrace 1.14, written by Peter Selinger 2001-2017
</metadata>
<g transform="translate(0.000000,700.000000) scale(0.100000,-0.100000)"
fill="#000000" stroke="none">
<path d="M3116 6774 c-71 -18 -131 -36 -134 -38 -3 -3 2 -36 11 -73 9 -38 18
-82 20 -99 l5 -31 -97 -23 c-189 -45 -378 -119 -542 -212 -36 -21 -69 -38 -73
-38 -4 0 -26 40 -50 90 l-42 89 -27 -14 c-15 -8 -72 -38 -127 -66 l-99 -53 55
-106 c29 -59 54 -110 54 -113 0 -4 -21 -26 -47 -49 -26 -24 -75 -72 -109 -108
-59 -61 -63 -64 -81 -48 -10 9 -53 40 -97 68 -80 52 -86 53 -110 11 -6 -11
-35 -61 -63 -110 -29 -50 -53 -94 -53 -98 1 -5 30 -26 66 -48 103 -64 103 -63
57 -137 -106 -170 -186 -348 -239 -533 -19 -65 -36 -121 -38 -123 -2 -2 -44
10 -92 26 -49 17 -92 27 -96 24 -12 -13 -87 -267 -80 -273 10 -10 187 -69 205
-69 13 0 15 -9 11 -47 -3 -27 -6 -99 -7 -161 -1 -105 -2 -113 -22 -117 -11 -2
-62 -14 -112 -25 -83 -20 -93 -25 -93 -45 0 -25 55 -253 63 -261 3 -3 44 4 92
15 48 12 90 21 94 21 4 0 16 -39 25 -87 32 -168 94 -348 181 -529 l62 -131
-31 -20 c-17 -11 -56 -34 -87 -52 l-56 -31 64 -130 63 -130 49 24 c26 14 74
41 106 60 l58 35 41 -52 c22 -29 68 -81 103 -117 58 -60 61 -66 48 -85 -45
-61 -115 -189 -108 -195 24 -23 226 -149 232 -146 4 3 20 30 36 60 43 82 70
113 88 101 200 -136 350 -214 537 -279 144 -51 140 -43 97 -173 -14 -40 -24
-73 -23 -73 0 0 59 -20 129 -45 71 -25 132 -43 137 -40 4 2 20 51 35 107 15
57 29 108 30 114 2 8 18 10 42 8 21 -2 89 -5 151 -7 123 -2 116 2 127 -70 3
-22 12 -70 21 -108 13 -56 19 -69 32 -65 10 3 71 19 138 36 l121 32 -14 56
c-7 32 -17 78 -22 104 l-8 47 56 12 c200 40 422 125 594 227 70 42 66 45 124
-75 l35 -73 63 35 c35 19 91 49 124 66 34 16 61 32 61 35 0 18 -98 198 -135
249 -210 285 -598 351 -895 152 -147 -99 -265 -285 -295 -467 -3 -19 -8 -36
-10 -39 -12 -12 -278 -1 -291 12 -5 5 -8 19 -19 102 -9 68 -48 167 -95 245
-181 300 -547 411 -855 258 -33 -17 -75 -41 -93 -55 l-33 -25 -51 53 c-67 71
-148 168 -148 177 0 4 20 36 45 71 141 202 163 487 55 718 -96 206 -278 351
-489 390 -14 2 -28 6 -31 8 -13 8 -1 297 12 311 2 1 26 6 53 9 271 35 509 266
568 551 39 187 6 374 -97 547 l-29 49 49 50 c63 65 131 129 156 147 17 12 23
10 46 -11 145 -134 373 -191 576 -144 240 56 448 275 503 528 l17 79 137 -2
c76 -1 142 -5 147 -8 4 -3 14 -37 20 -76 48 -271 199 -466 433 -558 250 -99
541 -28 724 175 45 50 155 224 155 243 -1 9 -215 150 -228 150 -3 0 -27 -37
-54 -82 -27 -46 -52 -83 -57 -83 -4 0 -27 14 -50 31 -132 95 -340 199 -520
260 -94 31 -115 42 -113 56 2 10 14 54 27 97 14 44 23 82 20 84 -6 6 -257 93
-260 90 -6 -7 -54 -166 -60 -201 l-7 -37 -54 6 c-30 4 -100 7 -154 8 -88 1
-100 3 -101 19 -1 9 -2 20 -3 25 -1 4 -6 25 -11 47 -5 22 -9 42 -10 45 -1 3
-5 23 -10 45 -4 22 -10 45 -14 51 -4 7 -47 0 -135 -22z m-133 -450 c-94 -208
-314 -293 -520 -202 -54 24 -51 29 52 81 107 55 172 82 275 115 144 47 194 59
203 52 4 -4 0 -24 -10 -46z m1024 -19 c54 -20 139 -56 188 -81 98 -49 255
-145 255 -156 0 -19 -100 -43 -185 -43 -79 0 -97 3 -150 29 -79 39 -158 119
-195 198 -31 66 -36 88 -20 88 5 0 53 -16 107 -35z m-2202 -990 c0 -103 -2
-114 -32 -175 -39 -80 -115 -159 -186 -194 -72 -35 -80 -34 -72 7 25 113 123
344 204 480 l46 79 20 -44 c16 -35 20 -64 20 -153z m-260 -1365 c91 -52 158
-139 190 -248 25 -81 10 -231 -30 -309 l-14 -27 -50 104 c-48 100 -124 312
-135 375 -3 17 -10 46 -16 65 -11 39 -13 70 -4 70 4 0 30 -14 59 -30z m1085
-1256 c100 -48 170 -122 209 -221 11 -29 17 -54 12 -57 -26 -16 -333 121 -468
209 -78 51 -85 58 -67 68 81 46 218 46 314 1z m1606 -50 c26 -9 59 -23 72 -32
l23 -15 -48 -26 c-148 -81 -385 -171 -486 -186 -23 -4 -45 -9 -49 -11 -4 -3 1
16 12 42 84 195 287 292 476 228z"/>
<path d="M2575 5163 c-26 -7 -75 -40 -98 -67 -26 -31 -63 -105 -76 -151 -21
-80 -23 -102 -27 -226 -3 -143 10 -218 55 -314 35 -76 78 -117 193 -185 119
-72 163 -116 184 -186 25 -88 21 -224 -10 -298 -48 -114 -166 -149 -250 -75
-63 55 -95 151 -116 348 0 2 -8 0 -17 -4 -10 -4 -27 -8 -38 -10 -11 -1 -23 -3
-28 -4 -11 -2 1 -150 19 -234 46 -221 125 -326 258 -341 91 -11 170 44 225
156 43 90 63 185 66 324 5 193 -31 333 -109 428 -20 24 -77 67 -142 106 -133
80 -168 113 -185 170 -17 63 -15 187 5 248 20 59 68 111 105 114 99 5 137 -15
171 -94 23 -54 25 -63 38 -163 8 -64 6 -63 72 -50 8 2 18 4 22 4 13 2 -3 164
-26 251 -51 193 -158 286 -291 253z"/>
<path d="M3032 4933 c32 -114 65 -230 73 -258 7 -27 42 -147 77 -265 l63 -215
5 -375 5 -375 48 -1 47 -1 0 359 c0 323 2 365 19 426 27 95 260 884 266 900 3
9 -11 12 -53 12 l-58 0 -59 -207 c-32 -115 -80 -288 -106 -386 -26 -99 -50
-181 -52 -183 -2 -2 -20 60 -40 138 -21 79 -68 253 -106 388 l-68 245 -60 3
-60 3 59 -208z"/>
<path d="M3719 5128 c-1 -17 -1 -1660 0 -1674 1 -8 51 -11 174 -10 144 2 177
5 206 20 84 45 137 153 157 326 17 148 7 308 -28 405 -22 63 -72 145 -89 145
-5 0 1 17 14 38 29 45 35 61 62 167 14 59 15 264 1 325 -3 14 -8 34 -10 45
-21 94 -71 177 -126 205 -34 18 -58 20 -200 20 -121 0 -160 -3 -161 -12z m345
-213 c60 -40 89 -226 56 -363 -15 -59 -38 -92 -77 -108 -43 -18 -222 -19 -224
-1 -7 70 -2 483 6 489 5 4 55 5 111 3 74 -2 109 -8 128 -20z m7 -711 c32 -19
65 -70 75 -115 16 -77 19 -111 18 -169 -3 -92 -12 -138 -37 -189 -35 -72 -57
-82 -178 -85 -57 -1 -111 0 -119 2 -13 3 -15 42 -15 285 0 327 -15 294 132
292 69 -2 99 -7 124 -21z"/>
<path d="M4396 4293 l1 -848 269 0 269 0 0 100 0 100 -215 0 c-182 0 -216 2
-221 15 -3 8 -5 137 -5 285 l1 270 200 5 200 5 0 92 c0 50 -3 95 -7 99 -4 4
-92 8 -195 9 -104 1 -190 3 -193 3 -4 2 -5 483 -1 503 0 3 94 5 207 5 164 -1
208 2 212 12 3 8 5 53 6 100 l0 87 -264 3 -265 2 1 -847z"/>
<path d="M5070 4291 l0 -849 48 2 47 1 1 369 c1 270 5 370 14 376 6 4 37 6 68
4 31 -2 65 -3 75 -3 25 -1 72 -80 104 -175 15 -45 28 -88 30 -96 2 -8 32 -118
67 -245 l63 -230 61 -3 c71 -3 68 -16 26 136 -127 461 -148 525 -193 593 l-29
43 26 13 c74 38 126 125 155 256 16 70 17 316 3 382 -18 83 -48 165 -75 202
-47 65 -80 73 -301 73 l-190 0 0 -849z m407 627 c48 -47 68 -117 68 -243 0
-126 -19 -196 -63 -238 -40 -38 -65 -44 -196 -43 l-118 1 0 248 c1 136 1 261
1 278 l1 31 139 -4 c137 -3 140 -4 168 -30z"/>
<path d="M5842 2441 c-120 -41 -184 -159 -185 -345 -1 -167 19 -247 83 -320
55 -62 95 -79 190 -79 108 -1 175 47 229 163 22 48 26 72 29 188 5 139 -4 192
-40 265 -22 44 -77 101 -118 122 -45 23 -129 26 -188 6z m148 -107 c75 -37
104 -109 104 -264 0 -106 -2 -121 -27 -171 -35 -72 -86 -104 -157 -97 -105 10
-153 89 -156 257 -2 153 24 228 95 270 40 23 100 26 141 5z"/>
<path d="M5094 2441 c-2 -2 -4 -26 -4 -52 l0 -48 96 0 c54 0 99 -3 101 -5 2
-2 5 -145 6 -317 l2 -314 45 0 45 0 1 313 c1 172 3 314 6 317 2 3 48 6 102 7
l97 1 -3 51 -3 51 -243 0 c-134 0 -246 -2 -248 -4z"/>
<path d="M6315 2441 c-3 -2 -5 -167 -5 -367 0 -394 -4 -371 60 -370 l35 1 0
137 c1 75 4 140 7 143 3 3 46 6 94 7 96 0 129 11 174 57 69 70 82 210 27 301
-48 80 -84 93 -250 95 -76 0 -140 -1 -142 -4z m283 -117 c70 -46 61 -196 -14
-224 -14 -6 -60 -10 -102 -10 l-77 0 0 122 0 123 30 5 c53 9 138 0 163 -16z"/>
<path d="M1555 1532 c-155 -16 -275 -99 -337 -233 -52 -111 -77 -273 -72 -474
4 -208 48 -366 133 -473 64 -81 199 -141 328 -146 260 -9 411 130 468 434 12
58 13 351 3 420 -20 128 -72 276 -113 316 -8 8 -20 23 -27 33 -34 47 -132 98
-226 117 -33 7 -121 10 -157 6z m147 -237 c108 -44 156 -167 159 -410 3 -250
-42 -384 -151 -440 -30 -15 -144 -17 -180 -2 -40 17 -91 69 -111 113 -32 70
-46 166 -47 313 0 258 48 384 165 427 44 16 125 16 165 -1z"/>
<path d="M614 1514 c-116 -23 -194 -83 -252 -192 -63 -119 -87 -246 -86 -467
0 -146 10 -227 37 -330 37 -134 115 -237 216 -283 54 -25 63 -26 289 -30 127
-2 233 0 233 5 1 4 2 59 3 121 l2 112 -171 0 c-182 0 -232 8 -281 46 -34 25
-70 89 -78 139 -3 17 -10 53 -15 80 -5 28 -8 115 -6 195 4 219 35 303 128 353
39 20 58 22 232 25 l190 3 -1 112 c-1 62 -2 115 -3 118 -2 11 -377 6 -437 -7z"/>
<path d="M2235 1522 c-3 -3 -5 -299 -5 -657 l0 -653 100 -1 100 -2 2 471 3
472 159 -394 c88 -216 167 -411 177 -433 10 -22 25 -57 33 -77 l15 -38 125 0
126 0 0 658 0 658 -98 0 -99 0 1 -474 c1 -260 -1 -476 -3 -478 -4 -3 -223 547
-238 596 -2 8 -34 92 -72 185 l-67 170 -127 1 c-70 0 -129 -1 -132 -4z"/>
<path d="M3262 870 l0 -658 99 -1 98 -2 0 303 c0 655 0 658 18 613 8 -22 21
-53 28 -70 7 -16 32 -77 55 -135 23 -58 50 -124 61 -147 10 -23 19 -44 19 -47
0 -7 188 -466 202 -493 11 -22 17 -23 135 -23 l123 0 0 658 0 658 -98 0 -99 0
1 -478 c1 -262 -2 -474 -6 -470 -3 4 -46 108 -94 232 -48 124 -109 281 -136
350 -27 69 -67 172 -89 230 -21 58 -43 112 -48 120 -6 12 -34 15 -139 16
l-130 2 0 -658z"/>
<path d="M4579 1519 c-117 -18 -215 -115 -279 -279 -12 -30 -24 -66 -27 -80
-2 -14 -9 -45 -15 -70 -15 -66 -17 -321 -2 -421 23 -157 80 -287 157 -360 85
-79 159 -96 427 -98 l175 0 -1 114 c0 63 -2 117 -5 119 -3 3 -78 6 -166 6 -94
1 -179 7 -203 14 -54 16 -103 55 -124 100 -24 52 -47 176 -32 177 6 1 121 3
256 4 135 1 252 3 260 4 12 1 15 20 15 110 0 60 -4 113 -8 118 -5 4 -126 8
-270 8 l-262 0 3 30 c11 124 19 152 59 204 44 57 76 65 288 71 l189 5 1 108
c0 60 -2 112 -5 116 -6 9 -371 9 -431 0z"/>
<path d="M5454 1514 c-158 -35 -254 -148 -306 -359 -18 -76 -22 -118 -22 -275
0 -102 3 -205 7 -230 28 -184 103 -328 203 -386 74 -43 124 -51 352 -53 l212
-1 0 120 0 120 -168 0 c-232 0 -285 17 -331 108 -20 39 -34 91 -45 172 -6 42
-7 264 -2 300 19 116 38 162 88 204 54 47 102 56 292 56 l166 0 1 40 c0 22 0
65 0 95 0 30 0 66 0 79 l-1 23 -197 0 c-110 -1 -221 -6 -249 -13z"/>
<path d="M5950 1408 l0 -118 149 0 c110 0 150 -3 153 -12 2 -7 3 -250 2 -540
l-1 -528 104 1 103 0 0 540 0 539 158 0 159 0 0 118 0 118 -413 0 -414 0 0
-118z"/>
</g>
</svg>
